<?xml version="1.0" encoding="utf-8"?>
<!-- Generator: Adobe Illustrator 24.3.0, SVG Export Plug-In . SVG Version: 6.00 Build 0)  -->
<svg version="1.1" id="Camada_1" xmlns="http://www.w3.org/2000/svg" xmlns:xlink="http://www.w3.org/1999/xlink" x="0px" y="0px"
	 viewBox="0 0 368.77 112.19" style="enable-background:new 0 0 368.77 112.19;" xml:space="preserve">
<style type="text/css">
	.st0{fill:#1B58EF;}
	.st1{fill:#0839B2;}
	.st2{fill:#283C7C;}
</style>
<g>
	<g>
		<g>
			<path class="st0" d="M55.9,59.03H42.99l-3.74-11.71H20.52l-3.71,11.71H3.97L23.13,6.4h14.06L55.9,59.03z M36.53,38.22
				l-5.65-17.69c-0.42-1.32-0.71-2.9-0.88-4.73H29.7c-0.12,1.54-0.43,3.07-0.92,4.59l-5.73,17.84H36.53z"/>
			<path class="st0" d="M97.63,59.03H86.07V38.15c0-5.82-2.08-8.73-6.24-8.73c-2.01,0-3.66,0.77-4.96,2.31
				c-1.3,1.54-1.94,3.5-1.94,5.87v21.43h-11.6V21.45h11.6v5.95h0.15c2.76-4.58,6.79-6.86,12.07-6.86c8.32,0,12.48,5.16,12.48,15.49
				V59.03z"/>
			<path class="st0" d="M138.08,59.03h-10.97v-5.4h-0.15c-2.52,4.21-6.25,6.31-11.19,6.31c-3.65,0-6.51-1.03-8.61-3.1
				c-2.09-2.07-3.14-4.83-3.14-8.28c0-7.29,4.32-11.5,12.96-12.63l10.2-1.36c0-4.11-2.23-6.17-6.68-6.17c-4.48,0-8.73,1.33-12.77,4
				v-8.73c1.61-0.83,3.82-1.57,6.62-2.2c2.8-0.64,5.35-0.95,7.65-0.95c10.72,0,16.08,5.35,16.08,16.04V59.03z M127.18,43.76v-2.53
				l-6.83,0.88c-3.77,0.49-5.65,2.19-5.65,5.1c0,1.32,0.46,2.4,1.38,3.25s2.16,1.27,3.73,1.27c2.18,0,3.95-0.75,5.32-2.26
				C126.49,47.97,127.18,46.06,127.18,43.76z"/>
			<path class="st0" d="M158.85,59.03h-11.6V3.39h11.6V59.03z"/>
			<path class="st0" d="M174.49,15.5c-1.96,0-3.56-0.58-4.81-1.74c-1.25-1.16-1.87-2.59-1.87-4.28c0-1.74,0.62-3.16,1.87-4.26
				c1.25-1.1,2.85-1.65,4.81-1.65c1.98,0,3.59,0.55,4.83,1.65c1.23,1.1,1.85,2.52,1.85,4.26c0,1.76-0.62,3.21-1.85,4.33
				C178.08,14.94,176.47,15.5,174.49,15.5z M180.21,59.03h-11.6V21.45h11.6V59.03z"/>
			<path class="st0" d="M187.51,58.04v-9.4c1.91,1.15,3.81,2.01,5.71,2.57c1.9,0.56,3.69,0.84,5.38,0.84c2.06,0,3.68-0.28,4.86-0.84
				c1.19-0.56,1.78-1.42,1.78-2.57c0-0.73-0.27-1.35-0.81-1.84c-0.54-0.49-1.23-0.92-2.07-1.28c-0.84-0.37-1.77-0.7-2.77-0.99
				c-1-0.29-1.97-0.62-2.9-0.99c-1.49-0.56-2.81-1.17-3.95-1.82c-1.14-0.65-2.09-1.4-2.86-2.26c-0.77-0.86-1.36-1.85-1.76-2.97
				c-0.4-1.13-0.61-2.46-0.61-4c0-2.1,0.46-3.91,1.38-5.43c0.92-1.52,2.14-2.76,3.67-3.73c1.53-0.97,3.28-1.68,5.25-2.13
				c1.97-0.45,4.02-0.68,6.15-0.68c1.66,0,3.35,0.13,5.06,0.39s3.4,0.63,5.07,1.12v8.96c-1.47-0.86-3.04-1.5-4.72-1.93
				c-1.68-0.43-3.32-0.64-4.94-0.64c-0.76,0-1.47,0.07-2.15,0.2c-0.67,0.13-1.27,0.33-1.78,0.59c-0.51,0.26-0.92,0.59-1.21,0.99
				c-0.29,0.4-0.44,0.86-0.44,1.38c0,0.69,0.22,1.27,0.66,1.76c0.44,0.49,1.01,0.91,1.72,1.27c0.71,0.35,1.5,0.67,2.37,0.95
				s1.73,0.57,2.59,0.86c1.54,0.54,2.94,1.13,4.18,1.76s2.32,1.38,3.21,2.24c0.89,0.86,1.58,1.86,2.06,3.01
				c0.48,1.15,0.72,2.52,0.72,4.11c0,2.23-0.48,4.13-1.45,5.71s-2.25,2.86-3.85,3.85c-1.6,0.99-3.45,1.71-5.54,2.17
				c-2.09,0.45-4.26,0.68-6.51,0.68C194.87,59.95,191.04,59.31,187.51,58.04z"/>
			<path class="st1" d="M254.31,59.03h-10.97v-5.4h-0.15c-2.52,4.21-6.25,6.31-11.19,6.31c-3.65,0-6.51-1.03-8.61-3.1
				c-2.09-2.07-3.14-4.83-3.14-8.28c0-7.29,4.32-11.5,12.96-12.63l10.2-1.36c0-4.11-2.23-6.17-6.68-6.17c-4.48,0-8.74,1.33-12.77,4
				v-8.73c1.62-0.83,3.82-1.57,6.63-2.2c2.8-0.64,5.35-0.95,7.65-0.95c10.72,0,16.08,5.35,16.08,16.04V59.03z M243.41,43.76v-2.53
				l-6.83,0.88c-3.77,0.49-5.65,2.19-5.65,5.1c0,1.32,0.46,2.4,1.38,3.25c0.92,0.84,2.16,1.27,3.72,1.27c2.18,0,3.95-0.75,5.32-2.26
				C242.73,47.97,243.41,46.06,243.41,43.76z"/>
			<path class="st1" d="M275.08,58.37c0,5.55-1.36,9.99-4.07,13.32c-2.72,3.33-6.63,4.99-11.75,4.99c-1.69,0-3.54-0.37-5.54-1.1
				v-9.1c1.61,0.91,3.05,1.36,4.29,1.36c3.65,0,5.47-2.86,5.47-8.59v-37.8h11.6V58.37z M269.36,15.5c-1.96,0-3.56-0.58-4.81-1.74
				c-1.25-1.16-1.87-2.59-1.87-4.28c0-1.74,0.62-3.16,1.87-4.26c1.25-1.1,2.85-1.65,4.81-1.65c1.98,0,3.59,0.55,4.83,1.65
				c1.23,1.1,1.85,2.52,1.85,4.26c0,1.76-0.62,3.21-1.85,4.33C272.95,14.94,271.34,15.5,269.36,15.5z"/>
			<path class="st1" d="M320.56,59.03H309v-5.73h-0.18c-2.86,4.43-6.69,6.64-11.49,6.64c-8.71,0-13.07-5.27-13.07-15.82V21.45h11.56
				V43.1c0,5.31,2.1,7.96,6.31,7.96c2.08,0,3.74-0.73,4.99-2.18c1.25-1.46,1.87-3.43,1.87-5.93V21.45h11.56V59.03z"/>
			<path class="st1" d="M367.09,59.03h-11.6v-5.17h-0.15c-2.64,4.06-6.52,6.09-11.63,6.09c-4.7,0-8.48-1.66-11.34-4.97
				c-2.86-3.31-4.29-7.95-4.29-13.89c0-6.21,1.58-11.19,4.73-14.94s7.29-5.62,12.41-5.62c4.84,0,8.22,1.74,10.13,5.21h0.15V3.39
				h11.6V59.03z M355.72,40.75v-2.83c0-2.45-0.71-4.48-2.13-6.09c-1.42-1.61-3.27-2.42-5.54-2.42c-2.57,0-4.58,1.01-6.02,3.03
				c-1.44,2.02-2.17,4.79-2.17,8.31c0,3.3,0.7,5.85,2.09,7.63c1.39,1.79,3.33,2.68,5.8,2.68c2.35,0,4.26-0.94,5.74-2.83
				C354.98,46.36,355.72,43.86,355.72,40.75z"/>
		</g>
	</g>
	<g>
		<g>
			<path class="st2" d="M168.75,100.69h-2.15v-12.6h2.15V100.69z"/>
			<path class="st2" d="M179.64,100.69h-2.04v-5.07c0-1.68-0.59-2.52-1.78-2.52c-0.62,0-1.13,0.23-1.54,0.7s-0.61,1.05-0.61,1.76
				v5.13h-2.05v-9h2.05v1.49h0.04c0.67-1.14,1.65-1.71,2.92-1.71c0.98,0,1.73,0.32,2.24,0.95s0.77,1.55,0.77,2.76V100.69z"/>
			<path class="st2" d="M186.87,100.59c-0.4,0.2-0.92,0.3-1.57,0.3c-1.75,0-2.62-0.84-2.62-2.51v-5.09h-1.5v-1.6h1.5v-2.08
				l2.04-0.58v2.66h2.15v1.6h-2.15v4.5c0,0.53,0.1,0.91,0.29,1.14s0.52,0.34,0.97,0.34c0.35,0,0.64-0.1,0.9-0.3V100.59z"/>
			<path class="st2" d="M196.15,96.74h-6.13c0.02,0.83,0.28,1.47,0.77,1.92s1.16,0.68,2.02,0.68c0.96,0,1.84-0.29,2.65-0.86v1.64
				c-0.82,0.52-1.9,0.77-3.25,0.77c-1.32,0-2.36-0.41-3.12-1.23s-1.13-1.97-1.13-3.45c0-1.4,0.41-2.54,1.24-3.42
				s1.86-1.32,3.09-1.32s2.18,0.4,2.86,1.19s1.01,1.89,1.01,3.3V96.74z M194.18,95.3c-0.01-0.73-0.18-1.3-0.52-1.71
				s-0.81-0.61-1.41-0.61c-0.59,0-1.08,0.21-1.49,0.64s-0.66,0.99-0.75,1.68H194.18z"/>
			<path class="st2" d="M200.14,100.69h-2.05V87.37h2.05V100.69z"/>
			<path class="st2" d="M203.82,89.8c-0.33,0-0.62-0.11-0.86-0.33c-0.24-0.22-0.36-0.49-0.36-0.83s0.12-0.61,0.36-0.83
				c0.24-0.22,0.52-0.33,0.86-0.33c0.35,0,0.64,0.11,0.88,0.33s0.36,0.5,0.36,0.83c0,0.32-0.12,0.59-0.36,0.81
				S204.16,89.8,203.82,89.8z M204.83,100.69h-2.04v-9h2.04V100.69z"/>
			<path class="st2" d="M215.68,99.97c0,3.3-1.66,4.96-4.98,4.96c-1.17,0-2.19-0.2-3.07-0.59v-1.86c0.98,0.56,1.92,0.84,2.8,0.84
				c2.14,0,3.21-1.05,3.21-3.16v-0.98h-0.04c-0.67,1.15-1.69,1.72-3.04,1.72c-1.1,0-1.98-0.4-2.65-1.2
				c-0.67-0.8-1.01-1.87-1.01-3.22c0-1.53,0.36-2.75,1.08-3.65s1.71-1.35,2.97-1.35c1.19,0,2.07,0.49,2.65,1.46h0.04v-1.25h2.04
				V99.97z M213.66,96.57V95.4c0-0.63-0.21-1.17-0.63-1.62c-0.42-0.45-0.94-0.67-1.57-0.67c-0.77,0-1.38,0.29-1.82,0.86
				s-0.65,1.37-0.65,2.4c0,0.88,0.21,1.59,0.63,2.12c0.42,0.53,0.97,0.8,1.67,0.8c0.7,0,1.27-0.25,1.71-0.76
				S213.66,97.36,213.66,96.57z"/>
			<path class="st2" d="M225.96,96.74h-6.13c0.02,0.83,0.28,1.47,0.77,1.92c0.49,0.45,1.16,0.68,2.02,0.68
				c0.96,0,1.84-0.29,2.65-0.86v1.64c-0.82,0.52-1.9,0.77-3.25,0.77c-1.32,0-2.36-0.41-3.12-1.23c-0.75-0.82-1.13-1.97-1.13-3.45
				c0-1.4,0.41-2.54,1.24-3.42s1.86-1.32,3.09-1.32s2.18,0.4,2.86,1.19s1.01,1.89,1.01,3.3V96.74z M224.82,90.11h-1.41l-1.42-1.85
				l-1.38,1.85h-1.36l1.97-2.88h1.62L224.82,90.11z M223.99,95.3c-0.01-0.73-0.18-1.3-0.52-1.71s-0.81-0.61-1.41-0.61
				c-0.59,0-1.08,0.21-1.49,0.64c-0.41,0.43-0.66,0.99-0.75,1.68H223.99z"/>
			<path class="st2" d="M235.92,100.69h-2.04v-5.07c0-1.68-0.59-2.52-1.78-2.52c-0.62,0-1.13,0.23-1.54,0.7s-0.61,1.05-0.61,1.76
				v5.13h-2.05v-9h2.05v1.49h0.04c0.67-1.14,1.65-1.71,2.92-1.71c0.98,0,1.73,0.32,2.24,0.95s0.77,1.55,0.77,2.76V100.69z"/>
			<path class="st2" d="M244.85,100.28c-0.72,0.42-1.57,0.62-2.56,0.62c-1.34,0-2.41-0.42-3.23-1.25s-1.23-1.92-1.23-3.25
				c0-1.48,0.44-2.67,1.32-3.57c0.88-0.9,2.06-1.35,3.54-1.35c0.82,0,1.54,0.14,2.17,0.43v1.9c-0.63-0.47-1.29-0.7-2-0.7
				c-0.86,0-1.57,0.29-2.12,0.87s-0.83,1.35-0.83,2.29c0,0.93,0.26,1.67,0.78,2.21c0.52,0.54,1.21,0.81,2.09,0.81
				c0.73,0,1.42-0.26,2.07-0.78V100.28z"/>
			<path class="st2" d="M247.9,89.8c-0.33,0-0.62-0.11-0.86-0.33c-0.24-0.22-0.36-0.49-0.36-0.83s0.12-0.61,0.36-0.83
				c0.24-0.22,0.52-0.33,0.86-0.33c0.35,0,0.64,0.11,0.88,0.33s0.36,0.5,0.36,0.83c0,0.32-0.12,0.59-0.36,0.81
				S248.24,89.8,247.9,89.8z M248.91,100.69h-2.04v-9h2.04V100.69z"/>
			<path class="st2" d="M258.48,100.69h-1.98v-1.41h-0.04c-0.62,1.08-1.53,1.62-2.73,1.62c-0.88,0-1.58-0.24-2.08-0.72
				c-0.5-0.48-0.75-1.12-0.75-1.91c0-1.7,0.98-2.69,2.94-2.97l2.67-0.38c0-1.28-0.61-1.92-1.83-1.92c-1.07,0-2.04,0.37-2.9,1.11
				v-1.78c0.95-0.56,2.04-0.84,3.29-0.84c2.27,0,3.41,1.12,3.41,3.36V100.69z M256.51,96.27l-1.89,0.26
				c-0.59,0.08-1.03,0.22-1.32,0.43c-0.3,0.21-0.44,0.57-0.44,1.09c0,0.38,0.14,0.69,0.41,0.94c0.27,0.24,0.64,0.36,1.09,0.36
				c0.62,0,1.13-0.22,1.54-0.65c0.41-0.44,0.61-0.99,0.61-1.65V96.27z"/>
			<path class="st2" d="M274.1,100.69h-2.04v-1.53h-0.04c-0.66,1.16-1.67,1.74-3.03,1.74c-1.11,0-1.99-0.4-2.66-1.21s-1-1.9-1-3.29
				c0-1.49,0.37-2.68,1.1-3.58s1.72-1.34,2.94-1.34c1.21,0,2.09,0.49,2.65,1.46h0.04v-5.57h2.04V100.69z M272.08,96.58V95.4
				c0-0.64-0.21-1.18-0.62-1.63s-0.95-0.67-1.59-0.67c-0.76,0-1.36,0.28-1.8,0.85s-0.65,1.36-0.65,2.36c0,0.91,0.21,1.64,0.63,2.17
				c0.42,0.53,0.98,0.8,1.69,0.8c0.7,0,1.26-0.26,1.7-0.77S272.08,97.36,272.08,96.58z"/>
			<path class="st2" d="M284.38,96.74h-6.13c0.02,0.83,0.28,1.47,0.77,1.92c0.49,0.45,1.16,0.68,2.02,0.68
				c0.96,0,1.84-0.29,2.65-0.86v1.64c-0.82,0.52-1.9,0.77-3.25,0.77c-1.32,0-2.36-0.41-3.12-1.23c-0.75-0.82-1.13-1.97-1.13-3.45
				c0-1.4,0.41-2.54,1.24-3.42s1.86-1.32,3.09-1.32s2.18,0.4,2.86,1.19s1.01,1.89,1.01,3.3V96.74z M282.41,95.3
				c-0.01-0.73-0.18-1.3-0.52-1.71s-0.81-0.61-1.41-0.61c-0.59,0-1.08,0.21-1.49,0.64c-0.41,0.43-0.66,0.99-0.75,1.68H282.41z"/>
			<path class="st2" d="M302.19,100.69h-2.29l-6.02-9.26c-0.15-0.23-0.28-0.48-0.38-0.73h-0.05c0.05,0.27,0.07,0.85,0.07,1.73v8.26
				h-2.02v-12.6h2.43l5.82,9.04c0.25,0.38,0.4,0.63,0.47,0.77h0.04c-0.06-0.33-0.09-0.9-0.09-1.7v-8.12h2.01V100.69z"/>
			<path class="st2" d="M312.7,96.74h-6.13c0.02,0.83,0.28,1.47,0.77,1.92c0.49,0.45,1.16,0.68,2.02,0.68
				c0.96,0,1.84-0.29,2.65-0.86v1.64c-0.82,0.52-1.9,0.77-3.25,0.77c-1.32,0-2.36-0.41-3.12-1.23c-0.75-0.82-1.13-1.97-1.13-3.45
				c0-1.4,0.41-2.54,1.24-3.42s1.86-1.32,3.09-1.32s2.18,0.4,2.86,1.19s1.01,1.89,1.01,3.3V96.74z M310.73,95.3
				c-0.01-0.73-0.18-1.3-0.52-1.71s-0.81-0.61-1.41-0.61c-0.59,0-1.08,0.21-1.49,0.64c-0.41,0.43-0.66,0.99-0.75,1.68H310.73z"/>
			<path class="st2" d="M322.83,99.97c0,3.3-1.66,4.96-4.98,4.96c-1.17,0-2.19-0.2-3.07-0.59v-1.86c0.98,0.56,1.92,0.84,2.8,0.84
				c2.14,0,3.21-1.05,3.21-3.16v-0.98h-0.04c-0.67,1.15-1.69,1.72-3.04,1.72c-1.1,0-1.98-0.4-2.65-1.2
				c-0.67-0.8-1.01-1.87-1.01-3.22c0-1.53,0.36-2.75,1.08-3.65s1.71-1.35,2.97-1.35c1.19,0,2.07,0.49,2.65,1.46h0.04v-1.25h2.04
				V99.97z M320.81,96.57V95.4c0-0.63-0.21-1.17-0.63-1.62c-0.42-0.45-0.94-0.67-1.57-0.67c-0.77,0-1.38,0.29-1.82,0.86
				s-0.65,1.37-0.65,2.4c0,0.88,0.21,1.59,0.63,2.12c0.42,0.53,0.97,0.8,1.67,0.8c0.7,0,1.27-0.25,1.71-0.76
				S320.81,97.36,320.81,96.57z"/>
			<path class="st2" d="M329.48,100.9c-1.39,0-2.5-0.42-3.33-1.26s-1.24-1.96-1.24-3.34c0-1.51,0.43-2.69,1.3-3.54
				s2.03-1.27,3.49-1.27c1.41,0,2.5,0.41,3.29,1.24s1.18,1.97,1.18,3.44c0,1.44-0.42,2.59-1.27,3.45
				C332.04,100.47,330.91,100.9,329.48,100.9z M329.57,93.11c-0.8,0-1.43,0.28-1.89,0.83s-0.69,1.32-0.69,2.3
				c0,0.94,0.23,1.69,0.7,2.23s1.1,0.81,1.88,0.81c0.8,0,1.42-0.27,1.85-0.8c0.43-0.53,0.65-1.29,0.65-2.28
				c0-0.99-0.21-1.75-0.65-2.29C330.99,93.38,330.38,93.11,329.57,93.11z M332.17,87.1l-2.51,2.88h-1.51l2.13-2.88H332.17z"/>
			<path class="st2" d="M342.68,100.28c-0.72,0.42-1.57,0.62-2.56,0.62c-1.34,0-2.41-0.42-3.23-1.25s-1.23-1.92-1.23-3.25
				c0-1.48,0.44-2.67,1.32-3.57c0.88-0.9,2.06-1.35,3.54-1.35c0.82,0,1.54,0.14,2.17,0.43v1.9c-0.63-0.47-1.29-0.7-2-0.7
				c-0.86,0-1.57,0.29-2.12,0.87s-0.83,1.35-0.83,2.29c0,0.93,0.26,1.67,0.78,2.21c0.52,0.54,1.21,0.81,2.09,0.81
				c0.73,0,1.42-0.26,2.07-0.78V100.28z"/>
			<path class="st2" d="M345.73,89.8c-0.33,0-0.62-0.11-0.86-0.33c-0.24-0.22-0.36-0.49-0.36-0.83s0.12-0.61,0.36-0.83
				c0.24-0.22,0.52-0.33,0.86-0.33c0.35,0,0.64,0.11,0.88,0.33s0.36,0.5,0.36,0.83c0,0.32-0.12,0.59-0.36,0.81
				S346.07,89.8,345.73,89.8z M346.74,100.69h-2.04v-9h2.04V100.69z"/>
			<path class="st2" d="M353.39,100.9c-1.39,0-2.5-0.42-3.33-1.26s-1.24-1.96-1.24-3.34c0-1.51,0.43-2.69,1.3-3.54
				s2.03-1.27,3.49-1.27c1.41,0,2.5,0.41,3.29,1.24s1.18,1.97,1.18,3.44c0,1.44-0.42,2.59-1.27,3.45
				C355.96,100.47,354.82,100.9,353.39,100.9z M353.49,93.11c-0.8,0-1.43,0.28-1.89,0.83s-0.69,1.32-0.69,2.3
				c0,0.94,0.23,1.69,0.7,2.23s1.1,0.81,1.88,0.81c0.8,0,1.42-0.27,1.85-0.8c0.43-0.53,0.65-1.29,0.65-2.28
				c0-0.99-0.21-1.75-0.65-2.29C354.91,93.38,354.29,93.11,353.49,93.11z"/>
			<path class="st2" d="M359.59,100.41v-1.89c0.76,0.58,1.6,0.87,2.52,0.87c1.23,0,1.85-0.36,1.85-1.09c0-0.21-0.05-0.38-0.16-0.52
				s-0.25-0.27-0.43-0.38c-0.18-0.11-0.39-0.21-0.63-0.3c-0.24-0.09-0.51-0.19-0.81-0.3c-0.37-0.15-0.7-0.3-1-0.47
				c-0.3-0.16-0.54-0.35-0.74-0.56c-0.2-0.21-0.34-0.44-0.44-0.71s-0.15-0.57-0.15-0.92c0-0.43,0.1-0.82,0.31-1.15
				s0.48-0.61,0.83-0.83s0.74-0.4,1.18-0.51s0.89-0.17,1.36-0.17c0.83,0,1.58,0.13,2.23,0.38v1.78c-0.63-0.43-1.36-0.65-2.18-0.65
				c-0.26,0-0.49,0.03-0.7,0.08s-0.38,0.13-0.53,0.22s-0.26,0.21-0.34,0.34s-0.12,0.28-0.12,0.44c0,0.19,0.04,0.36,0.12,0.49
				s0.2,0.25,0.36,0.36s0.35,0.2,0.58,0.28s0.49,0.18,0.78,0.28c0.39,0.16,0.73,0.32,1.04,0.48c0.31,0.16,0.57,0.35,0.79,0.56
				s0.38,0.45,0.5,0.72s0.18,0.6,0.18,0.97c0,0.46-0.11,0.86-0.32,1.2s-0.49,0.62-0.84,0.84s-0.76,0.39-1.22,0.5
				c-0.46,0.11-0.95,0.16-1.46,0.16C361.16,100.9,360.31,100.74,359.59,100.41z"/>
		</g>
	</g>
</g>
<g>
</g>
<g>
</g>
<g>
</g>
<g>
</g>
<g>
</g>
<g>
</g>
</svg>
