<?xml version="1.0" encoding="utf-8"?>
<!-- Generator: Adobe Illustrator 24.3.0, SVG Export Plug-In . SVG Version: 6.00 Build 0)  -->
<svg version="1.1" id="Camada_1" xmlns="http://www.w3.org/2000/svg" xmlns:xlink="http://www.w3.org/1999/xlink" x="0px" y="0px"
	 viewBox="0 0 368.77 79" style="enable-background:new 0 0 368.77 79;" xml:space="preserve">
<style type="text/css">
	.st0{fill:#FFFFFF;}
</style>
<g>
	<g>
		<g>
			<path class="st0" d="M55.9,59.03H42.99l-3.74-11.71H20.52l-3.71,11.71H3.97L23.13,6.4h14.06L55.9,59.03z M36.53,38.22
				l-5.65-17.69c-0.42-1.32-0.71-2.9-0.88-4.73H29.7c-0.12,1.54-0.43,3.07-0.92,4.59l-5.73,17.84H36.53z"/>
			<path class="st0" d="M97.63,59.03H86.07V38.15c0-5.82-2.08-8.73-6.24-8.73c-2.01,0-3.66,0.77-4.96,2.31
				c-1.3,1.54-1.94,3.5-1.94,5.87v21.43h-11.6V21.45h11.6v5.95h0.15c2.76-4.58,6.79-6.86,12.07-6.86c8.32,0,12.48,5.16,12.48,15.49
				V59.03z"/>
			<path class="st0" d="M138.08,59.03h-10.97v-5.4h-0.15c-2.52,4.21-6.25,6.31-11.19,6.31c-3.65,0-6.51-1.03-8.61-3.1
				c-2.09-2.07-3.14-4.83-3.14-8.28c0-7.29,4.32-11.5,12.96-12.63l10.2-1.36c0-4.11-2.23-6.17-6.68-6.17c-4.48,0-8.73,1.33-12.77,4
				v-8.73c1.61-0.83,3.82-1.57,6.62-2.2c2.8-0.64,5.35-0.95,7.65-0.95c10.72,0,16.08,5.35,16.08,16.04V59.03z M127.18,43.76v-2.53
				l-6.83,0.88c-3.77,0.49-5.65,2.19-5.65,5.1c0,1.32,0.46,2.4,1.38,3.25s2.16,1.27,3.73,1.27c2.18,0,3.95-0.75,5.32-2.26
				C126.49,47.97,127.18,46.06,127.18,43.76z"/>
			<path class="st0" d="M158.85,59.03h-11.6V3.39h11.6V59.03z"/>
			<path class="st0" d="M174.49,15.5c-1.96,0-3.56-0.58-4.81-1.74c-1.25-1.16-1.87-2.59-1.87-4.28c0-1.74,0.62-3.16,1.87-4.26
				c1.25-1.1,2.85-1.65,4.81-1.65c1.98,0,3.59,0.55,4.83,1.65c1.23,1.1,1.85,2.52,1.85,4.26c0,1.76-0.62,3.21-1.85,4.33
				C178.08,14.94,176.47,15.5,174.49,15.5z M180.21,59.03h-11.6V21.45h11.6V59.03z"/>
			<path class="st0" d="M187.51,58.04v-9.4c1.91,1.15,3.81,2.01,5.71,2.57c1.9,0.56,3.69,0.84,5.38,0.84c2.06,0,3.68-0.28,4.86-0.84
				c1.19-0.56,1.78-1.42,1.78-2.57c0-0.73-0.27-1.35-0.81-1.84c-0.54-0.49-1.23-0.92-2.07-1.28c-0.84-0.37-1.77-0.7-2.77-0.99
				c-1-0.29-1.97-0.62-2.9-0.99c-1.49-0.56-2.81-1.17-3.95-1.82c-1.14-0.65-2.09-1.4-2.86-2.26c-0.77-0.86-1.36-1.85-1.76-2.97
				c-0.4-1.13-0.61-2.46-0.61-4c0-2.1,0.46-3.91,1.38-5.43c0.92-1.52,2.14-2.76,3.67-3.73c1.53-0.97,3.28-1.68,5.25-2.13
				c1.97-0.45,4.02-0.68,6.15-0.68c1.66,0,3.35,0.13,5.06,0.39s3.4,0.63,5.07,1.12v8.96c-1.47-0.86-3.04-1.5-4.72-1.93
				c-1.68-0.43-3.32-0.64-4.94-0.64c-0.76,0-1.47,0.07-2.15,0.2c-0.67,0.13-1.27,0.33-1.78,0.59c-0.51,0.26-0.92,0.59-1.21,0.99
				c-0.29,0.4-0.44,0.86-0.44,1.38c0,0.69,0.22,1.27,0.66,1.76c0.44,0.49,1.01,0.91,1.72,1.27c0.71,0.35,1.5,0.67,2.37,0.95
				s1.73,0.57,2.59,0.86c1.54,0.54,2.94,1.13,4.18,1.76s2.32,1.38,3.21,2.24c0.89,0.86,1.58,1.86,2.06,3.01
				c0.48,1.15,0.72,2.52,0.72,4.11c0,2.23-0.48,4.13-1.45,5.71s-2.25,2.86-3.85,3.85c-1.6,0.99-3.45,1.71-5.54,2.17
				c-2.09,0.45-4.26,0.68-6.51,0.68C194.87,59.95,191.04,59.31,187.51,58.04z"/>
			<path class="st0" d="M254.31,59.03h-10.97v-5.4h-0.15c-2.52,4.21-6.25,6.31-11.19,6.31c-3.65,0-6.51-1.03-8.61-3.1
				c-2.09-2.07-3.14-4.83-3.14-8.28c0-7.29,4.32-11.5,12.96-12.63l10.2-1.36c0-4.11-2.23-6.17-6.68-6.17c-4.48,0-8.74,1.33-12.77,4
				v-8.73c1.62-0.83,3.82-1.57,6.63-2.2c2.8-0.64,5.35-0.95,7.65-0.95c10.72,0,16.08,5.35,16.08,16.04V59.03z M243.41,43.76v-2.53
				l-6.83,0.88c-3.77,0.49-5.65,2.19-5.65,5.1c0,1.32,0.46,2.4,1.38,3.25c0.92,0.84,2.16,1.27,3.72,1.27c2.18,0,3.95-0.75,5.32-2.26
				C242.73,47.97,243.41,46.06,243.41,43.76z"/>
			<path class="st0" d="M275.08,58.37c0,5.55-1.36,9.99-4.07,13.32c-2.72,3.33-6.63,4.99-11.75,4.99c-1.69,0-3.54-0.37-5.54-1.1
				v-9.1c1.61,0.91,3.05,1.36,4.29,1.36c3.65,0,5.47-2.86,5.47-8.59v-37.8h11.6V58.37z M269.36,15.5c-1.96,0-3.56-0.58-4.81-1.74
				c-1.25-1.16-1.87-2.59-1.87-4.28c0-1.74,0.62-3.16,1.87-4.26c1.25-1.1,2.85-1.65,4.81-1.65c1.98,0,3.59,0.55,4.83,1.65
				c1.23,1.1,1.85,2.52,1.85,4.26c0,1.76-0.62,3.21-1.85,4.33C272.95,14.94,271.34,15.5,269.36,15.5z"/>
			<path class="st0" d="M320.56,59.03H309v-5.73h-0.18c-2.86,4.43-6.69,6.64-11.49,6.64c-8.71,0-13.07-5.27-13.07-15.82V21.45h11.56
				V43.1c0,5.31,2.1,7.96,6.31,7.96c2.08,0,3.74-0.73,4.99-2.18c1.25-1.46,1.87-3.43,1.87-5.93V21.45h11.56V59.03z"/>
			<path class="st0" d="M367.09,59.03h-11.6v-5.17h-0.15c-2.64,4.06-6.52,6.09-11.63,6.09c-4.7,0-8.48-1.66-11.34-4.97
				c-2.86-3.31-4.29-7.95-4.29-13.89c0-6.21,1.58-11.19,4.73-14.94s7.29-5.62,12.41-5.62c4.84,0,8.22,1.74,10.13,5.21h0.15V3.39
				h11.6V59.03z M355.72,40.75v-2.83c0-2.45-0.71-4.48-2.13-6.09c-1.42-1.61-3.27-2.42-5.54-2.42c-2.57,0-4.58,1.01-6.02,3.03
				c-1.44,2.02-2.17,4.79-2.17,8.31c0,3.3,0.7,5.85,2.09,7.63c1.39,1.79,3.33,2.68,5.8,2.68c2.35,0,4.26-0.94,5.74-2.83
				C354.98,46.36,355.72,43.86,355.72,40.75z"/>
		</g>
	</g>
</g>
<g>
</g>
<g>
</g>
<g>
</g>
<g>
</g>
<g>
</g>
<g>
</g>
</svg>
